<?xml version="1.0" encoding="UTF-8" standalone="no"?>
<svg
   width="24"
   height="24"
   viewBox="0 0 24 24"
   version="1.1"
   id="svg4"
   xmlns="http://www.w3.org/2000/svg"
   xmlns:svg="http://www.w3.org/2000/svg">
  <defs
     id="defs8" />
  <path
     d="m 9,19.467316 c -5,1.5 -5,-2.5 -7,-3 m 14,6 v -3.87 a 3.37,3.37 0 0 0 -0.94,-2.61 c 3.14,-0.35 6.44,-1.54 6.44,-7.0000003 a 5.44,5.44 0 0 0 -1.5,-3.75 5.07,5.07 0 0 0 -0.09,-3.77 c 0,0 -1.18,-0.35 -3.91,1.48 a 13.38,13.38 0 0 0 -7,0 c -2.73,-1.83 -3.91,-1.48 -3.91,-1.48 a 5.07,5.07 0 0 0 -0.09,3.77 5.44,5.44 0 0 0 -1.5,3.78 c 0,5.4200003 3.3,6.6100003 6.44,7.0000003 a 3.37,3.37 0 0 0 -0.94,2.58 v 3.87"
     fill="none"
     stroke="#000000"
     stroke-linecap="round"
     stroke-linejoin="round"
     stroke-width="2"
     id="path2" />
</svg>
