<?xml version="1.0" encoding="UTF-8" standalone="no"?>
<!-- Generator: Adobe Illustrator 16.0.0, SVG Export Plug-In . SVG Version: 6.00 Build 0)  -->

<svg
   version="1.1"
   id="Layer_1"
   x="0px"
   y="0px"
   width="144"
   height="144"
   viewBox="0 0 144 144"
   enable-background="new 0 0 568.291 144"
   xml:space="preserve"
   xmlns="http://www.w3.org/2000/svg"
   xmlns:svg="http://www.w3.org/2000/svg"><defs
   id="defs35">
	

		
	
			
		
				
				
				
				
			</defs>
<g
   id="g830"
   style="fill:#000000;fill-opacity:1"><path
     fill="#ffffff"
     d="m 21.47789,53.985 h 21.359 v 68.722 h -21.359 z m 10.684,-34.16 c 6.828,0 12.377,5.549 12.377,12.38 0,6.837 -5.549,12.386 -12.377,12.386 -6.846,0 -12.387,-5.549 -12.387,-12.386 0.001,-6.83 5.542,-12.38 12.387,-12.38"
     id="path20"
     style="fill:#000000;fill-opacity:1" /><path
     fill="#ffffff"
     d="m 56.23389,53.985 h 20.485 v 9.39 h 0.286 c 2.852,-5.403 9.818,-11.099 20.209,-11.099 21.628,0 25.621,14.234 25.621,32.736 v 37.694 h -21.344 v -33.42 c 0,-7.969 -0.146,-18.22 -11.099,-18.22 -11.113,0 -12.819,8.681 -12.819,17.644 v 33.996 h -21.34 V 53.985 Z"
     id="path22"
     style="fill:#000000;fill-opacity:1" /></g>
</svg>
